<?xml version="1.0" encoding="utf-8" standalone="no"?>
<!DOCTYPE svg PUBLIC "-//W3C//DTD SVG 1.1//EN"
  "http://www.w3.org/Graphics/SVG/1.1/DTD/svg11.dtd">
<!-- Created with matplotlib (http://matplotlib.org/) -->
<svg height="293pt" version="1.1" viewBox="0 0 293 293" width="293pt" xmlns="http://www.w3.org/2000/svg" xmlns:xlink="http://www.w3.org/1999/xlink">
 <defs>
  <style type="text/css">
*{stroke-linecap:butt;stroke-linejoin:round;stroke-miterlimit:100000;}
  </style>
 </defs>
 <g id="figure_1">
  <g id="patch_1">
   <path d="M 0 293.4 
L 293.4 293.4 
L 293.4 0 
L 0 0 
z
" style="fill:#ffffff;"/>
  </g>
  <g id="axes_1">
   <g id="PolyCollection_1">
    <defs>
     <path d="M 10.145 -238.15 
L 10.145 -236.6 
L 49.05 -236.6 
L 51.065 -236.6 
L 51.065 -249.31 
L 66.41 -249.31 
L 66.41 -283.1 
L 66.41 -283.1 
L 66.41 -283.1 
L 66.41 -283.1 
L 51.065 -283.1 
L 51.065 -283.1 
L 49.05 -283.1 
L 10.145 -238.15 
z
" id="m132b8cbc58" style="stroke:#bfbfbf;"/>
    </defs>
    <g clip-path="url(#pa5e363aaeb)">
     <use style="fill:#bfbfbf;stroke:#bfbfbf;" x="0.0" xlink:href="#m132b8cbc58" y="293.4"/>
    </g>
   </g>
   <g id="PolyCollection_2">
    <defs>
     <path d="M 104.85 -249.775 
L 104.85 -283.1 
L 152.125 -283.1 
L 152.125 -249.775 
L 152.125 -249.775 
L 104.85 -249.775 
z
" id="ma44ef2bda7" style="stroke:#bfbfbf;"/>
    </defs>
    <g clip-path="url(#pa5e363aaeb)">
     <use style="fill:#bfbfbf;stroke:#bfbfbf;" x="0.0" xlink:href="#ma44ef2bda7" y="293.4"/>
    </g>
   </g>
   <g id="PolyCollection_3">
    <defs>
     <path d="M 222.96 -249.93 
L 222.96 -283.1 
L 237.685 -283.1 
L 237.685 -249.93 
L 237.685 -249.93 
L 222.96 -249.93 
z
" id="m083605d484" style="stroke:#bfbfbf;"/>
    </defs>
    <g clip-path="url(#pa5e363aaeb)">
     <use style="fill:#bfbfbf;stroke:#bfbfbf;" x="0.0" xlink:href="#m083605d484" y="293.4"/>
    </g>
   </g>
   <g id="PolyCollection_4">
    <defs>
     <path d="M 10.145 -100.2 
L 10.145 -100.51 
L 35.255 -100.51 
L 65.325 -100.51 
L 65.325 -63 
L 92.76 -63 
L 92.76 -45.95 
L 179.25 -45.95 
L 179.25 -11.54 
L 179.25 -11.54 
L 179.25 -11.54 
L 179.25 -11.54 
L 92.76 -11.54 
L 92.76 -11.54 
L 65.325 -11.54 
L 65.325 -11.54 
L 35.255 -11.54 
L 10.145 -100.2 
z
" id="md40ed9e224" style="stroke:#bfbfbf;"/>
    </defs>
    <g clip-path="url(#pa5e363aaeb)">
     <use style="fill:#bfbfbf;stroke:#bfbfbf;" x="0.0" xlink:href="#md40ed9e224" y="293.4"/>
    </g>
   </g>
   <g id="PolyCollection_5">
    <defs>
     <path d="M 105.625 -184.055 
L 105.625 -228.54 
L 252.1 -228.54 
L 252.1 -184.055 
L 252.1 -184.055 
L 105.625 -184.055 
z
" id="md41407414b" style="stroke:#bfbfbf;"/>
    </defs>
    <g clip-path="url(#pa5e363aaeb)">
     <use style="fill:#bfbfbf;stroke:#bfbfbf;" x="0.0" xlink:href="#md41407414b" y="293.4"/>
    </g>
   </g>
   <g id="PolyCollection_6">
    <defs>
     <path d="M 204.825 -11.54 
L 204.825 -45.95 
L 237.84 -45.95 
L 237.84 -11.54 
L 237.84 -11.54 
L 204.825 -11.54 
z
" id="m3df60820c8" style="stroke:#bfbfbf;"/>
    </defs>
    <g clip-path="url(#pa5e363aaeb)">
     <use style="fill:#bfbfbf;stroke:#bfbfbf;" x="0.0" xlink:href="#m3df60820c8" y="293.4"/>
    </g>
   </g>
   <g id="PolyCollection_7">
    <defs>
     <path d="M 236.445 -62.225 
L 236.445 -87.025 
L 256.44 -87.025 
L 256.44 -62.225 
L 256.44 -62.225 
L 236.445 -62.225 
z
" id="me18126267b" style="stroke:#bfbfbf;"/>
    </defs>
    <g clip-path="url(#pa5e363aaeb)">
     <use style="fill:#bfbfbf;stroke:#bfbfbf;" x="0.0" xlink:href="#me18126267b" y="293.4"/>
    </g>
   </g>
   <g id="PolyCollection_8">
    <defs>
     <path d="M 51.53 -131.51 
L 51.53 -162.975 
L 66.565 -162.975 
L 66.565 -131.51 
L 66.565 -131.51 
L 51.53 -131.51 
z
" id="m9d5364a158" style="stroke:#bfbfbf;"/>
    </defs>
    <g clip-path="url(#pa5e363aaeb)">
     <use style="fill:#bfbfbf;stroke:#bfbfbf;" x="0.0" xlink:href="#m9d5364a158" y="293.4"/>
    </g>
   </g>
   <g id="PolyCollection_9">
    <defs>
     <path d="M 66.41 -133.37 
L 66.41 -161.115 
L 81.755 -161.115 
L 81.755 -133.37 
L 81.755 -133.37 
L 66.41 -133.37 
z
" id="mf460a76640" style="stroke:#bfbfbf;"/>
    </defs>
    <g clip-path="url(#pa5e363aaeb)">
     <use style="fill:#bfbfbf;stroke:#bfbfbf;" x="0.0" xlink:href="#mf460a76640" y="293.4"/>
    </g>
   </g>
   <g id="PolyCollection_10">
    <defs>
     <path d="M 122.52 -95.86 
L 122.52 -171.19 
L 239.39 -171.19 
L 239.39 -95.86 
L 239.39 -95.86 
L 122.52 -95.86 
z
" id="ma836355230" style="stroke:#bfbfbf;"/>
    </defs>
    <g clip-path="url(#pa5e363aaeb)">
     <use style="fill:#bfbfbf;stroke:#bfbfbf;" x="0.0" xlink:href="#ma836355230" y="293.4"/>
    </g>
   </g>
   <g id="PolyCollection_11">
    <defs>
     <path d="M 35.72 -128.41 
L 35.72 -161.89 
L 44.865 -161.89 
L 44.865 -128.41 
L 44.865 -128.41 
L 35.72 -128.41 
z
" id="m922daa4378" style="stroke:#bfbfbf;"/>
    </defs>
    <g clip-path="url(#pa5e363aaeb)">
     <use style="fill:#bfbfbf;stroke:#bfbfbf;" x="0.0" xlink:href="#m922daa4378" y="293.4"/>
    </g>
   </g>
   <g id="line2d_1">
    <path clip-path="url(#pa5e363aaeb)" d="M 10.145 53.7 
L 10.145 193.2 
L 35.255 281.86 
L 255.975 281.86 
L 279.69 230.4 
L 279.69 100.2 
L 254.27 10.145 
L 47.5 10.145 
L 10.145 53.7 
" style="fill:none;stroke:#bfbfbf;stroke-linecap:square;stroke-width:1.5;"/>
   </g>
   <g id="line2d_2">
    <path clip-path="url(#pa5e363aaeb)" d="M 159.1 14.95 
L 162.975 14.95 
L 162.975 27.35 
L 159.1 27.35 
L 159.1 14.95 
" style="fill:none;stroke:#000000;stroke-linecap:square;"/>
   </g>
   <g id="line2d_3">
    <path clip-path="url(#pa5e363aaeb)" d="M 159.1 14.95 
L 162.975 14.95 
L 162.975 27.35 
L 159.1 27.35 
L 159.1 14.95 
" style="fill:none;stroke:#000000;stroke-linecap:square;"/>
   </g>
   <g id="line2d_4">
    <path clip-path="url(#pa5e363aaeb)" d="M 167.935 28.9 
L 171.81 28.9 
L 171.81 41.3 
L 167.935 41.3 
L 167.935 28.9 
" style="fill:none;stroke:#000000;stroke-linecap:square;"/>
   </g>
   <g id="line2d_5">
    <path clip-path="url(#pa5e363aaeb)" d="M 167.935 28.9 
L 171.81 28.9 
L 171.81 41.3 
L 167.935 41.3 
L 167.935 28.9 
" style="fill:none;stroke:#000000;stroke-linecap:square;"/>
   </g>
   <g id="line2d_6">
    <path clip-path="url(#pa5e363aaeb)" d="M 174.91 28.9 
L 178.785 28.9 
L 178.785 41.3 
L 174.91 41.3 
L 174.91 28.9 
" style="fill:none;stroke:#000000;stroke-linecap:square;"/>
   </g>
   <g id="line2d_7">
    <path clip-path="url(#pa5e363aaeb)" d="M 174.91 28.9 
L 178.785 28.9 
L 178.785 41.3 
L 174.91 41.3 
L 174.91 28.9 
" style="fill:none;stroke:#000000;stroke-linecap:square;"/>
   </g>
   <g id="line2d_8">
    <path clip-path="url(#pa5e363aaeb)" d="M 181.885 28.9 
L 185.76 28.9 
L 185.76 41.3 
L 181.885 41.3 
L 181.885 28.9 
" style="fill:none;stroke:#000000;stroke-linecap:square;"/>
   </g>
   <g id="line2d_9">
    <path clip-path="url(#pa5e363aaeb)" d="M 181.885 28.9 
L 185.76 28.9 
L 185.76 41.3 
L 181.885 41.3 
L 181.885 28.9 
" style="fill:none;stroke:#000000;stroke-linecap:square;"/>
   </g>
   <g id="line2d_10">
    <path clip-path="url(#pa5e363aaeb)" d="M 189.015 28.9 
L 192.89 28.9 
L 192.89 41.3 
L 189.015 41.3 
L 189.015 28.9 
" style="fill:none;stroke:#000000;stroke-linecap:square;"/>
   </g>
   <g id="line2d_11">
    <path clip-path="url(#pa5e363aaeb)" d="M 189.015 28.9 
L 192.89 28.9 
L 192.89 41.3 
L 189.015 41.3 
L 189.015 28.9 
" style="fill:none;stroke:#000000;stroke-linecap:square;"/>
   </g>
   <g id="line2d_12">
    <path clip-path="url(#pa5e363aaeb)" d="M 189.015 14.95 
L 192.89 14.95 
L 192.89 21.15 
L 189.015 21.15 
L 189.015 14.95 
" style="fill:none;stroke:#000000;stroke-linecap:square;"/>
   </g>
   <g id="line2d_13">
    <path clip-path="url(#pa5e363aaeb)" d="M 189.015 14.95 
L 192.89 14.95 
L 192.89 21.15 
L 189.015 21.15 
L 189.015 14.95 
" style="fill:none;stroke:#000000;stroke-linecap:square;"/>
   </g>
   <g id="line2d_14">
    <path clip-path="url(#pa5e363aaeb)" d="M 181.885 14.95 
L 185.76 14.95 
L 185.76 21.15 
L 181.885 21.15 
L 181.885 14.95 
" style="fill:none;stroke:#000000;stroke-linecap:square;"/>
   </g>
   <g id="line2d_15">
    <path clip-path="url(#pa5e363aaeb)" d="M 181.885 14.95 
L 185.76 14.95 
L 185.76 21.15 
L 181.885 21.15 
L 181.885 14.95 
" style="fill:none;stroke:#000000;stroke-linecap:square;"/>
   </g>
   <g id="line2d_16">
    <path clip-path="url(#pa5e363aaeb)" d="M 196.3 18.05 
L 200.175 18.05 
L 200.175 30.45 
L 196.3 30.45 
L 196.3 18.05 
" style="fill:none;stroke:#000000;stroke-linecap:square;"/>
   </g>
   <g id="line2d_17">
    <path clip-path="url(#pa5e363aaeb)" d="M 196.3 18.05 
L 200.175 18.05 
L 200.175 30.45 
L 196.3 30.45 
L 196.3 18.05 
" style="fill:none;stroke:#000000;stroke-linecap:square;"/>
   </g>
   <g id="line2d_18">
    <path clip-path="url(#pa5e363aaeb)" d="M 208.7 28.9 
L 212.575 28.9 
L 212.575 41.3 
L 208.7 41.3 
L 208.7 28.9 
" style="fill:none;stroke:#000000;stroke-linecap:square;"/>
   </g>
   <g id="line2d_19">
    <path clip-path="url(#pa5e363aaeb)" d="M 208.7 28.9 
L 212.575 28.9 
L 212.575 41.3 
L 208.7 41.3 
L 208.7 28.9 
" style="fill:none;stroke:#000000;stroke-linecap:square;"/>
   </g>
   <g id="line2d_20">
    <path clip-path="url(#pa5e363aaeb)" d="M 215.675 28.9 
L 219.55 28.9 
L 219.55 41.3 
L 215.675 41.3 
L 215.675 28.9 
" style="fill:none;stroke:#000000;stroke-linecap:square;"/>
   </g>
   <g id="line2d_21">
    <path clip-path="url(#pa5e363aaeb)" d="M 215.675 28.9 
L 219.55 28.9 
L 219.55 41.3 
L 215.675 41.3 
L 215.675 28.9 
" style="fill:none;stroke:#000000;stroke-linecap:square;"/>
   </g>
   <g id="line2d_22">
    <path clip-path="url(#pa5e363aaeb)" d="M 235.825 49.05 
L 239.7 49.05 
L 239.7 61.45 
L 235.825 61.45 
L 235.825 49.05 
" style="fill:none;stroke:#000000;stroke-linecap:square;"/>
   </g>
   <g id="line2d_23">
    <path clip-path="url(#pa5e363aaeb)" d="M 235.825 49.05 
L 239.7 49.05 
L 239.7 61.45 
L 235.825 61.45 
L 235.825 49.05 
" style="fill:none;stroke:#000000;stroke-linecap:square;"/>
   </g>
   <g id="line2d_24">
    <path clip-path="url(#pa5e363aaeb)" d="M 242.025 49.05 
L 245.9 49.05 
L 245.9 61.45 
L 242.025 61.45 
L 242.025 49.05 
" style="fill:none;stroke:#000000;stroke-linecap:square;"/>
   </g>
   <g id="line2d_25">
    <path clip-path="url(#pa5e363aaeb)" d="M 242.025 49.05 
L 245.9 49.05 
L 245.9 61.45 
L 242.025 61.45 
L 242.025 49.05 
" style="fill:none;stroke:#000000;stroke-linecap:square;"/>
   </g>
   <g id="line2d_26">
    <path clip-path="url(#pa5e363aaeb)" d="M 208.7 49.05 
L 212.575 49.05 
L 212.575 61.45 
L 208.7 61.45 
L 208.7 49.05 
" style="fill:none;stroke:#000000;stroke-linecap:square;"/>
   </g>
   <g id="line2d_27">
    <path clip-path="url(#pa5e363aaeb)" d="M 208.7 49.05 
L 212.575 49.05 
L 212.575 61.45 
L 208.7 61.45 
L 208.7 49.05 
" style="fill:none;stroke:#000000;stroke-linecap:square;"/>
   </g>
   <g id="line2d_28">
    <path clip-path="url(#pa5e363aaeb)" d="M 215.675 49.05 
L 219.55 49.05 
L 219.55 61.45 
L 215.675 61.45 
L 215.675 49.05 
" style="fill:none;stroke:#000000;stroke-linecap:square;"/>
   </g>
   <g id="line2d_29">
    <path clip-path="url(#pa5e363aaeb)" d="M 215.675 49.05 
L 219.55 49.05 
L 219.55 61.45 
L 215.675 61.45 
L 215.675 49.05 
" style="fill:none;stroke:#000000;stroke-linecap:square;"/>
   </g>
   <g id="line2d_30">
    <path clip-path="url(#pa5e363aaeb)" d="M 189.015 49.05 
L 192.89 49.05 
L 192.89 61.45 
L 189.015 61.45 
L 189.015 49.05 
" style="fill:none;stroke:#000000;stroke-linecap:square;"/>
   </g>
   <g id="line2d_31">
    <path clip-path="url(#pa5e363aaeb)" d="M 189.015 49.05 
L 192.89 49.05 
L 192.89 61.45 
L 189.015 61.45 
L 189.015 49.05 
" style="fill:none;stroke:#000000;stroke-linecap:square;"/>
   </g>
   <g id="line2d_32">
    <path clip-path="url(#pa5e363aaeb)" d="M 148.25 49.05 
L 152.125 49.05 
L 152.125 61.45 
L 148.25 61.45 
L 148.25 49.05 
" style="fill:none;stroke:#000000;stroke-linecap:square;"/>
   </g>
   <g id="line2d_33">
    <path clip-path="url(#pa5e363aaeb)" d="M 148.25 49.05 
L 152.125 49.05 
L 152.125 61.45 
L 148.25 61.45 
L 148.25 49.05 
" style="fill:none;stroke:#000000;stroke-linecap:square;"/>
   </g>
   <g id="line2d_34">
    <path clip-path="url(#pa5e363aaeb)" d="M 154.76 49.05 
L 158.635 49.05 
L 158.635 61.45 
L 154.76 61.45 
L 154.76 49.05 
" style="fill:none;stroke:#000000;stroke-linecap:square;"/>
   </g>
   <g id="line2d_35">
    <path clip-path="url(#pa5e363aaeb)" d="M 154.76 49.05 
L 158.635 49.05 
L 158.635 61.45 
L 154.76 61.45 
L 154.76 49.05 
" style="fill:none;stroke:#000000;stroke-linecap:square;"/>
   </g>
   <g id="line2d_36">
    <path clip-path="url(#pa5e363aaeb)" d="M 161.27 49.05 
L 165.145 49.05 
L 165.145 61.45 
L 161.27 61.45 
L 161.27 49.05 
" style="fill:none;stroke:#000000;stroke-linecap:square;"/>
   </g>
   <g id="line2d_37">
    <path clip-path="url(#pa5e363aaeb)" d="M 161.27 49.05 
L 165.145 49.05 
L 165.145 61.45 
L 161.27 61.45 
L 161.27 49.05 
" style="fill:none;stroke:#000000;stroke-linecap:square;"/>
   </g>
   <g id="line2d_38">
    <path clip-path="url(#pa5e363aaeb)" d="M 167.78 49.05 
L 171.655 49.05 
L 171.655 61.45 
L 167.78 61.45 
L 167.78 49.05 
" style="fill:none;stroke:#000000;stroke-linecap:square;"/>
   </g>
   <g id="line2d_39">
    <path clip-path="url(#pa5e363aaeb)" d="M 167.78 49.05 
L 171.655 49.05 
L 171.655 61.45 
L 167.78 61.45 
L 167.78 49.05 
" style="fill:none;stroke:#000000;stroke-linecap:square;"/>
   </g>
   <g id="line2d_40">
    <path clip-path="url(#pa5e363aaeb)" d="M 131.2 49.05 
L 135.075 49.05 
L 135.075 61.45 
L 131.2 61.45 
L 131.2 49.05 
" style="fill:none;stroke:#000000;stroke-linecap:square;"/>
   </g>
   <g id="line2d_41">
    <path clip-path="url(#pa5e363aaeb)" d="M 131.2 49.05 
L 135.075 49.05 
L 135.075 61.45 
L 131.2 61.45 
L 131.2 49.05 
" style="fill:none;stroke:#000000;stroke-linecap:square;"/>
   </g>
   <g id="line2d_42">
    <path clip-path="url(#pa5e363aaeb)" d="M 118.025 52.15 
L 121.9 52.15 
L 121.9 61.45 
L 118.025 61.45 
L 118.025 52.15 
" style="fill:none;stroke:#000000;stroke-linecap:square;"/>
   </g>
   <g id="line2d_43">
    <path clip-path="url(#pa5e363aaeb)" d="M 118.025 52.15 
L 121.9 52.15 
L 121.9 61.45 
L 118.025 61.45 
L 118.025 52.15 
" style="fill:none;stroke:#000000;stroke-linecap:square;"/>
   </g>
   <g id="line2d_44">
    <path clip-path="url(#pa5e363aaeb)" d="M 124.535 52.15 
L 128.41 52.15 
L 128.41 61.45 
L 124.535 61.45 
L 124.535 52.15 
" style="fill:none;stroke:#000000;stroke-linecap:square;"/>
   </g>
   <g id="line2d_45">
    <path clip-path="url(#pa5e363aaeb)" d="M 124.535 52.15 
L 128.41 52.15 
L 128.41 61.45 
L 124.535 61.45 
L 124.535 52.15 
" style="fill:none;stroke:#000000;stroke-linecap:square;"/>
   </g>
   <g id="line2d_46">
    <path clip-path="url(#pa5e363aaeb)" d="M 222.96 49.05 
L 232.26 49.05 
L 232.26 52.15 
L 222.96 52.15 
L 222.96 49.05 
" style="fill:none;stroke:#000000;stroke-linecap:square;"/>
   </g>
   <g id="line2d_47">
    <path clip-path="url(#pa5e363aaeb)" d="M 222.96 49.05 
L 232.26 49.05 
L 232.26 52.15 
L 222.96 52.15 
L 222.96 49.05 
" style="fill:none;stroke:#000000;stroke-linecap:square;"/>
   </g>
   <g id="line2d_48">
    <path clip-path="url(#pa5e363aaeb)" d="M 195.9125 49.05 
L 205.2125 49.05 
L 205.2125 52.15 
L 195.9125 52.15 
L 195.9125 49.05 
" style="fill:none;stroke:#000000;stroke-linecap:square;"/>
   </g>
   <g id="line2d_49">
    <path clip-path="url(#pa5e363aaeb)" d="M 195.9125 49.05 
L 205.2125 49.05 
L 205.2125 52.15 
L 195.9125 52.15 
L 195.9125 49.05 
" style="fill:none;stroke:#000000;stroke-linecap:square;"/>
   </g>
   <g id="line2d_50">
    <path clip-path="url(#pa5e363aaeb)" d="M 175.685 49.05 
L 184.985 49.05 
L 184.985 52.15 
L 175.685 52.15 
L 175.685 49.05 
" style="fill:none;stroke:#000000;stroke-linecap:square;"/>
   </g>
   <g id="line2d_51">
    <path clip-path="url(#pa5e363aaeb)" d="M 175.685 49.05 
L 184.985 49.05 
L 184.985 52.15 
L 175.685 52.15 
L 175.685 49.05 
" style="fill:none;stroke:#000000;stroke-linecap:square;"/>
   </g>
   <g id="line2d_52">
    <path clip-path="url(#pa5e363aaeb)" d="M 137.0125 58.35 
L 146.3125 58.35 
L 146.3125 61.45 
L 137.0125 61.45 
L 137.0125 58.35 
" style="fill:none;stroke:#000000;stroke-linecap:square;"/>
   </g>
   <g id="line2d_53">
    <path clip-path="url(#pa5e363aaeb)" d="M 137.0125 58.35 
L 146.3125 58.35 
L 146.3125 61.45 
L 137.0125 61.45 
L 137.0125 58.35 
" style="fill:none;stroke:#000000;stroke-linecap:square;"/>
   </g>
   <g id="line2d_54">
    <path clip-path="url(#pa5e363aaeb)" d="M 137.0125 49.05 
L 146.3125 49.05 
L 146.3125 52.15 
L 137.0125 52.15 
L 137.0125 49.05 
" style="fill:none;stroke:#000000;stroke-linecap:square;"/>
   </g>
   <g id="line2d_55">
    <path clip-path="url(#pa5e363aaeb)" d="M 137.0125 49.05 
L 146.3125 49.05 
L 146.3125 52.15 
L 137.0125 52.15 
L 137.0125 49.05 
" style="fill:none;stroke:#000000;stroke-linecap:square;"/>
   </g>
   <g id="line2d_56">
    <path clip-path="url(#pa5e363aaeb)" d="M 228.075 58.35 
L 232.725 58.35 
L 232.725 61.45 
L 228.075 61.45 
L 228.075 58.35 
" style="fill:none;stroke:#000000;stroke-linecap:square;"/>
   </g>
   <g id="line2d_57">
    <path clip-path="url(#pa5e363aaeb)" d="M 228.075 58.35 
L 232.725 58.35 
L 232.725 61.45 
L 228.075 61.45 
L 228.075 58.35 
" style="fill:none;stroke:#000000;stroke-linecap:square;"/>
   </g>
   <g id="line2d_58">
    <path clip-path="url(#pa5e363aaeb)" d="M 248.225 52.15 
L 252.1 52.15 
L 252.1 61.45 
L 248.225 61.45 
L 248.225 52.15 
" style="fill:none;stroke:#000000;stroke-linecap:square;"/>
   </g>
   <g id="line2d_59">
    <path clip-path="url(#pa5e363aaeb)" d="M 248.225 52.15 
L 252.1 52.15 
L 252.1 61.45 
L 248.225 61.45 
L 248.225 52.15 
" style="fill:none;stroke:#000000;stroke-linecap:square;"/>
   </g>
   <g id="line2d_60">
    <path clip-path="url(#pa5e363aaeb)" d="M 104.85 114.15 
L 117.25 114.15 
L 117.25 117.25 
L 104.85 117.25 
L 104.85 114.15 
" style="fill:none;stroke:#000000;stroke-linecap:square;"/>
   </g>
   <g id="line2d_61">
    <path clip-path="url(#pa5e363aaeb)" d="M 104.85 114.15 
L 117.25 114.15 
L 117.25 117.25 
L 104.85 117.25 
L 104.85 114.15 
" style="fill:none;stroke:#000000;stroke-linecap:square;"/>
   </g>
   <g id="line2d_62">
    <path clip-path="url(#pa5e363aaeb)" d="M 125.1519 114.15 
L 137.5519 114.15 
L 137.5519 117.25 
L 125.1519 117.25 
L 125.1519 114.15 
" style="fill:none;stroke:#000000;stroke-linecap:square;"/>
   </g>
   <g id="line2d_63">
    <path clip-path="url(#pa5e363aaeb)" d="M 125.1519 114.15 
L 137.5519 114.15 
L 137.5519 117.25 
L 125.1519 117.25 
L 125.1519 114.15 
" style="fill:none;stroke:#000000;stroke-linecap:square;"/>
   </g>
   <g id="line2d_64">
    <path clip-path="url(#pa5e363aaeb)" d="M 145.4538 114.15 
L 157.8538 114.15 
L 157.8538 117.25 
L 145.4538 117.25 
L 145.4538 114.15 
" style="fill:none;stroke:#000000;stroke-linecap:square;"/>
   </g>
   <g id="line2d_65">
    <path clip-path="url(#pa5e363aaeb)" d="M 145.4538 114.15 
L 157.8538 114.15 
L 157.8538 117.25 
L 145.4538 117.25 
L 145.4538 114.15 
" style="fill:none;stroke:#000000;stroke-linecap:square;"/>
   </g>
   <g id="line2d_66">
    <path clip-path="url(#pa5e363aaeb)" d="M 165.7557 114.15 
L 178.1557 114.15 
L 178.1557 117.25 
L 165.7557 117.25 
L 165.7557 114.15 
" style="fill:none;stroke:#000000;stroke-linecap:square;"/>
   </g>
   <g id="line2d_67">
    <path clip-path="url(#pa5e363aaeb)" d="M 165.7557 114.15 
L 178.1557 114.15 
L 178.1557 117.25 
L 165.7557 117.25 
L 165.7557 114.15 
" style="fill:none;stroke:#000000;stroke-linecap:square;"/>
   </g>
   <g id="line2d_68">
    <path clip-path="url(#pa5e363aaeb)" d="M 186.0576 114.15 
L 198.4576 114.15 
L 198.4576 117.25 
L 186.0576 117.25 
L 186.0576 114.15 
" style="fill:none;stroke:#000000;stroke-linecap:square;"/>
   </g>
   <g id="line2d_69">
    <path clip-path="url(#pa5e363aaeb)" d="M 186.0576 114.15 
L 198.4576 114.15 
L 198.4576 117.25 
L 186.0576 117.25 
L 186.0576 114.15 
" style="fill:none;stroke:#000000;stroke-linecap:square;"/>
   </g>
   <g id="line2d_70">
    <path clip-path="url(#pa5e363aaeb)" d="M 206.3595 114.15 
L 218.7595 114.15 
L 218.7595 117.25 
L 206.3595 117.25 
L 206.3595 114.15 
" style="fill:none;stroke:#000000;stroke-linecap:square;"/>
   </g>
   <g id="line2d_71">
    <path clip-path="url(#pa5e363aaeb)" d="M 206.3595 114.15 
L 218.7595 114.15 
L 218.7595 117.25 
L 206.3595 117.25 
L 206.3595 114.15 
" style="fill:none;stroke:#000000;stroke-linecap:square;"/>
   </g>
   <g id="line2d_72">
    <path clip-path="url(#pa5e363aaeb)" d="M 226.6614 114.15 
L 239.0614 114.15 
L 239.0614 117.25 
L 226.6614 117.25 
L 226.6614 114.15 
" style="fill:none;stroke:#000000;stroke-linecap:square;"/>
   </g>
   <g id="line2d_73">
    <path clip-path="url(#pa5e363aaeb)" d="M 226.6614 114.15 
L 239.0614 114.15 
L 239.0614 117.25 
L 226.6614 117.25 
L 226.6614 114.15 
" style="fill:none;stroke:#000000;stroke-linecap:square;"/>
   </g>
   <g id="line2d_74">
    <path clip-path="url(#pa5e363aaeb)" d="M 73.85 52.15 
L 86.25 52.15 
L 86.25 55.25 
L 73.85 55.25 
L 73.85 52.15 
" style="fill:none;stroke:#000000;stroke-linecap:square;"/>
   </g>
   <g id="line2d_75">
    <path clip-path="url(#pa5e363aaeb)" d="M 73.85 52.15 
L 86.25 52.15 
L 86.25 55.25 
L 73.85 55.25 
L 73.85 52.15 
" style="fill:none;stroke:#000000;stroke-linecap:square;"/>
   </g>
   <g id="line2d_76">
    <path clip-path="url(#pa5e363aaeb)" d="M 56.8 58.35 
L 69.2 58.35 
L 69.2 61.45 
L 56.8 61.45 
L 56.8 58.35 
" style="fill:none;stroke:#000000;stroke-linecap:square;"/>
   </g>
   <g id="line2d_77">
    <path clip-path="url(#pa5e363aaeb)" d="M 56.8 58.35 
L 69.2 58.35 
L 69.2 61.45 
L 56.8 61.45 
L 56.8 58.35 
" style="fill:none;stroke:#000000;stroke-linecap:square;"/>
   </g>
   <g id="line2d_78">
    <path clip-path="url(#pa5e363aaeb)" d="M 73.85 58.35 
L 86.25 58.35 
L 86.25 61.45 
L 73.85 61.45 
L 73.85 58.35 
" style="fill:none;stroke:#000000;stroke-linecap:square;"/>
   </g>
   <g id="line2d_79">
    <path clip-path="url(#pa5e363aaeb)" d="M 73.85 58.35 
L 86.25 58.35 
L 86.25 61.45 
L 73.85 61.45 
L 73.85 58.35 
" style="fill:none;stroke:#000000;stroke-linecap:square;"/>
   </g>
   <g id="line2d_80">
    <path clip-path="url(#pa5e363aaeb)" d="M 56.8 64.55 
L 69.2 64.55 
L 69.2 67.65 
L 56.8 67.65 
L 56.8 64.55 
" style="fill:none;stroke:#000000;stroke-linecap:square;"/>
   </g>
   <g id="line2d_81">
    <path clip-path="url(#pa5e363aaeb)" d="M 56.8 64.55 
L 69.2 64.55 
L 69.2 67.65 
L 56.8 67.65 
L 56.8 64.55 
" style="fill:none;stroke:#000000;stroke-linecap:square;"/>
   </g>
   <g id="line2d_82">
    <path clip-path="url(#pa5e363aaeb)" d="M 73.85 64.55 
L 86.25 64.55 
L 86.25 67.65 
L 73.85 67.65 
L 73.85 64.55 
" style="fill:none;stroke:#000000;stroke-linecap:square;"/>
   </g>
   <g id="line2d_83">
    <path clip-path="url(#pa5e363aaeb)" d="M 73.85 64.55 
L 86.25 64.55 
L 86.25 67.65 
L 73.85 67.65 
L 73.85 64.55 
" style="fill:none;stroke:#000000;stroke-linecap:square;"/>
   </g>
   <g id="line2d_84">
    <path clip-path="url(#pa5e363aaeb)" d="M 56.8 70.75 
L 69.2 70.75 
L 69.2 73.85 
L 56.8 73.85 
L 56.8 70.75 
" style="fill:none;stroke:#000000;stroke-linecap:square;"/>
   </g>
   <g id="line2d_85">
    <path clip-path="url(#pa5e363aaeb)" d="M 56.8 70.75 
L 69.2 70.75 
L 69.2 73.85 
L 56.8 73.85 
L 56.8 70.75 
" style="fill:none;stroke:#000000;stroke-linecap:square;"/>
   </g>
   <g id="line2d_86">
    <path clip-path="url(#pa5e363aaeb)" d="M 73.85 70.75 
L 86.25 70.75 
L 86.25 73.85 
L 73.85 73.85 
L 73.85 70.75 
" style="fill:none;stroke:#000000;stroke-linecap:square;"/>
   </g>
   <g id="line2d_87">
    <path clip-path="url(#pa5e363aaeb)" d="M 73.85 70.75 
L 86.25 70.75 
L 86.25 73.85 
L 73.85 73.85 
L 73.85 70.75 
" style="fill:none;stroke:#000000;stroke-linecap:square;"/>
   </g>
   <g id="line2d_88">
    <path clip-path="url(#pa5e363aaeb)" d="M 36.65 78.5 
L 49.05 78.5 
L 49.05 81.6 
L 36.65 81.6 
L 36.65 78.5 
" style="fill:none;stroke:#000000;stroke-linecap:square;"/>
   </g>
   <g id="line2d_89">
    <path clip-path="url(#pa5e363aaeb)" d="M 36.65 78.5 
L 49.05 78.5 
L 49.05 81.6 
L 36.65 81.6 
L 36.65 78.5 
" style="fill:none;stroke:#000000;stroke-linecap:square;"/>
   </g>
   <g id="line2d_90">
    <path clip-path="url(#pa5e363aaeb)" d="M 56.8 78.5 
L 69.2 78.5 
L 69.2 81.6 
L 56.8 81.6 
L 56.8 78.5 
" style="fill:none;stroke:#000000;stroke-linecap:square;"/>
   </g>
   <g id="line2d_91">
    <path clip-path="url(#pa5e363aaeb)" d="M 56.8 78.5 
L 69.2 78.5 
L 69.2 81.6 
L 56.8 81.6 
L 56.8 78.5 
" style="fill:none;stroke:#000000;stroke-linecap:square;"/>
   </g>
   <g id="line2d_92">
    <path clip-path="url(#pa5e363aaeb)" d="M 73.85 78.5 
L 86.25 78.5 
L 86.25 81.6 
L 73.85 81.6 
L 73.85 78.5 
" style="fill:none;stroke:#000000;stroke-linecap:square;"/>
   </g>
   <g id="line2d_93">
    <path clip-path="url(#pa5e363aaeb)" d="M 73.85 78.5 
L 86.25 78.5 
L 86.25 81.6 
L 73.85 81.6 
L 73.85 78.5 
" style="fill:none;stroke:#000000;stroke-linecap:square;"/>
   </g>
   <g id="line2d_94">
    <path clip-path="url(#pa5e363aaeb)" d="M 83.15 87.8 
L 86.25 87.8 
L 86.25 94 
L 83.15 94 
L 83.15 87.8 
" style="fill:none;stroke:#000000;stroke-linecap:square;"/>
   </g>
   <g id="line2d_95">
    <path clip-path="url(#pa5e363aaeb)" d="M 83.15 87.8 
L 86.25 87.8 
L 86.25 94 
L 83.15 94 
L 83.15 87.8 
" style="fill:none;stroke:#000000;stroke-linecap:square;"/>
   </g>
   <g id="line2d_96">
    <path clip-path="url(#pa5e363aaeb)" d="M 57.575 87.8 
L 60.675 87.8 
L 60.675 94 
L 57.575 94 
L 57.575 87.8 
" style="fill:none;stroke:#000000;stroke-linecap:square;"/>
   </g>
   <g id="line2d_97">
    <path clip-path="url(#pa5e363aaeb)" d="M 57.575 87.8 
L 60.675 87.8 
L 60.675 94 
L 57.575 94 
L 57.575 87.8 
" style="fill:none;stroke:#000000;stroke-linecap:square;"/>
   </g>
   <g id="line2d_98">
    <path clip-path="url(#pa5e363aaeb)" d="M 19.6 86.25 
L 32 86.25 
L 32 89.35 
L 19.6 89.35 
L 19.6 86.25 
" style="fill:none;stroke:#000000;stroke-linecap:square;"/>
   </g>
   <g id="line2d_99">
    <path clip-path="url(#pa5e363aaeb)" d="M 19.6 86.25 
L 32 86.25 
L 32 89.35 
L 19.6 89.35 
L 19.6 86.25 
" style="fill:none;stroke:#000000;stroke-linecap:square;"/>
   </g>
   <g id="line2d_100">
    <path clip-path="url(#pa5e363aaeb)" d="M 36.65 86.25 
L 49.05 86.25 
L 49.05 89.35 
L 36.65 89.35 
L 36.65 86.25 
" style="fill:none;stroke:#000000;stroke-linecap:square;"/>
   </g>
   <g id="line2d_101">
    <path clip-path="url(#pa5e363aaeb)" d="M 36.65 86.25 
L 49.05 86.25 
L 49.05 89.35 
L 36.65 89.35 
L 36.65 86.25 
" style="fill:none;stroke:#000000;stroke-linecap:square;"/>
   </g>
   <g id="line2d_102">
    <path clip-path="url(#pa5e363aaeb)" d="M 19.6 93.225 
L 32 93.225 
L 32 96.325 
L 19.6 96.325 
L 19.6 93.225 
" style="fill:none;stroke:#000000;stroke-linecap:square;"/>
   </g>
   <g id="line2d_103">
    <path clip-path="url(#pa5e363aaeb)" d="M 19.6 93.225 
L 32 93.225 
L 32 96.325 
L 19.6 96.325 
L 19.6 93.225 
" style="fill:none;stroke:#000000;stroke-linecap:square;"/>
   </g>
   <g id="line2d_104">
    <path clip-path="url(#pa5e363aaeb)" d="M 36.65 93.225 
L 49.05 93.225 
L 49.05 96.325 
L 36.65 96.325 
L 36.65 93.225 
" style="fill:none;stroke:#000000;stroke-linecap:square;"/>
   </g>
   <g id="line2d_105">
    <path clip-path="url(#pa5e363aaeb)" d="M 36.65 93.225 
L 49.05 93.225 
L 49.05 96.325 
L 36.65 96.325 
L 36.65 93.225 
" style="fill:none;stroke:#000000;stroke-linecap:square;"/>
   </g>
   <g id="line2d_106">
    <path clip-path="url(#pa5e363aaeb)" d="M 19.6 100.2 
L 32 100.2 
L 32 103.3 
L 19.6 103.3 
L 19.6 100.2 
" style="fill:none;stroke:#000000;stroke-linecap:square;"/>
   </g>
   <g id="line2d_107">
    <path clip-path="url(#pa5e363aaeb)" d="M 19.6 100.2 
L 32 100.2 
L 32 103.3 
L 19.6 103.3 
L 19.6 100.2 
" style="fill:none;stroke:#000000;stroke-linecap:square;"/>
   </g>
   <g id="line2d_108">
    <path clip-path="url(#pa5e363aaeb)" d="M 36.65 100.2 
L 49.05 100.2 
L 49.05 103.3 
L 36.65 103.3 
L 36.65 100.2 
" style="fill:none;stroke:#000000;stroke-linecap:square;"/>
   </g>
   <g id="line2d_109">
    <path clip-path="url(#pa5e363aaeb)" d="M 36.65 100.2 
L 49.05 100.2 
L 49.05 103.3 
L 36.65 103.3 
L 36.65 100.2 
" style="fill:none;stroke:#000000;stroke-linecap:square;"/>
   </g>
   <g id="line2d_110">
    <path clip-path="url(#pa5e363aaeb)" d="M 56.8 100.2 
L 69.2 100.2 
L 69.2 103.3 
L 56.8 103.3 
L 56.8 100.2 
" style="fill:none;stroke:#000000;stroke-linecap:square;"/>
   </g>
   <g id="line2d_111">
    <path clip-path="url(#pa5e363aaeb)" d="M 56.8 100.2 
L 69.2 100.2 
L 69.2 103.3 
L 56.8 103.3 
L 56.8 100.2 
" style="fill:none;stroke:#000000;stroke-linecap:square;"/>
   </g>
   <g id="line2d_112">
    <path clip-path="url(#pa5e363aaeb)" d="M 73.85 100.2 
L 86.25 100.2 
L 86.25 103.3 
L 73.85 103.3 
L 73.85 100.2 
" style="fill:none;stroke:#000000;stroke-linecap:square;"/>
   </g>
   <g id="line2d_113">
    <path clip-path="url(#pa5e363aaeb)" d="M 73.85 100.2 
L 86.25 100.2 
L 86.25 103.3 
L 73.85 103.3 
L 73.85 100.2 
" style="fill:none;stroke:#000000;stroke-linecap:square;"/>
   </g>
   <g id="line2d_114">
    <path clip-path="url(#pa5e363aaeb)" d="M 19.6 115.7 
L 32 115.7 
L 32 118.8 
L 19.6 118.8 
L 19.6 115.7 
" style="fill:none;stroke:#000000;stroke-linecap:square;"/>
   </g>
   <g id="line2d_115">
    <path clip-path="url(#pa5e363aaeb)" d="M 19.6 115.7 
L 32 115.7 
L 32 118.8 
L 19.6 118.8 
L 19.6 115.7 
" style="fill:none;stroke:#000000;stroke-linecap:square;"/>
   </g>
   <g id="line2d_116">
    <path clip-path="url(#pa5e363aaeb)" d="M 36.65 115.7 
L 49.05 115.7 
L 49.05 118.8 
L 36.65 118.8 
L 36.65 115.7 
" style="fill:none;stroke:#000000;stroke-linecap:square;"/>
   </g>
   <g id="line2d_117">
    <path clip-path="url(#pa5e363aaeb)" d="M 36.65 115.7 
L 49.05 115.7 
L 49.05 118.8 
L 36.65 118.8 
L 36.65 115.7 
" style="fill:none;stroke:#000000;stroke-linecap:square;"/>
   </g>
   <g id="line2d_118">
    <path clip-path="url(#pa5e363aaeb)" d="M 53.7 115.7 
L 66.1 115.7 
L 66.1 118.8 
L 53.7 118.8 
L 53.7 115.7 
" style="fill:none;stroke:#000000;stroke-linecap:square;"/>
   </g>
   <g id="line2d_119">
    <path clip-path="url(#pa5e363aaeb)" d="M 53.7 115.7 
L 66.1 115.7 
L 66.1 118.8 
L 53.7 118.8 
L 53.7 115.7 
" style="fill:none;stroke:#000000;stroke-linecap:square;"/>
   </g>
   <g id="line2d_120">
    <path clip-path="url(#pa5e363aaeb)" d="M 70.75 115.7 
L 83.15 115.7 
L 83.15 118.8 
L 70.75 118.8 
L 70.75 115.7 
" style="fill:none;stroke:#000000;stroke-linecap:square;"/>
   </g>
   <g id="line2d_121">
    <path clip-path="url(#pa5e363aaeb)" d="M 70.75 115.7 
L 83.15 115.7 
L 83.15 118.8 
L 70.75 118.8 
L 70.75 115.7 
" style="fill:none;stroke:#000000;stroke-linecap:square;"/>
   </g>
   <g id="line2d_122">
    <path clip-path="url(#pa5e363aaeb)" d="M 19.6 121.9 
L 32 121.9 
L 32 125 
L 19.6 125 
L 19.6 121.9 
" style="fill:none;stroke:#000000;stroke-linecap:square;"/>
   </g>
   <g id="line2d_123">
    <path clip-path="url(#pa5e363aaeb)" d="M 19.6 121.9 
L 32 121.9 
L 32 125 
L 19.6 125 
L 19.6 121.9 
" style="fill:none;stroke:#000000;stroke-linecap:square;"/>
   </g>
   <g id="line2d_124">
    <path clip-path="url(#pa5e363aaeb)" d="M 36.65 121.9 
L 49.05 121.9 
L 49.05 125 
L 36.65 125 
L 36.65 121.9 
" style="fill:none;stroke:#000000;stroke-linecap:square;"/>
   </g>
   <g id="line2d_125">
    <path clip-path="url(#pa5e363aaeb)" d="M 36.65 121.9 
L 49.05 121.9 
L 49.05 125 
L 36.65 125 
L 36.65 121.9 
" style="fill:none;stroke:#000000;stroke-linecap:square;"/>
   </g>
   <g id="line2d_126">
    <path clip-path="url(#pa5e363aaeb)" d="M 53.7 121.9 
L 66.1 121.9 
L 66.1 125 
L 53.7 125 
L 53.7 121.9 
" style="fill:none;stroke:#000000;stroke-linecap:square;"/>
   </g>
   <g id="line2d_127">
    <path clip-path="url(#pa5e363aaeb)" d="M 53.7 121.9 
L 66.1 121.9 
L 66.1 125 
L 53.7 125 
L 53.7 121.9 
" style="fill:none;stroke:#000000;stroke-linecap:square;"/>
   </g>
   <g id="line2d_128">
    <path clip-path="url(#pa5e363aaeb)" d="M 70.75 121.9 
L 83.15 121.9 
L 83.15 125 
L 70.75 125 
L 70.75 121.9 
" style="fill:none;stroke:#000000;stroke-linecap:square;"/>
   </g>
   <g id="line2d_129">
    <path clip-path="url(#pa5e363aaeb)" d="M 70.75 121.9 
L 83.15 121.9 
L 83.15 125 
L 70.75 125 
L 70.75 121.9 
" style="fill:none;stroke:#000000;stroke-linecap:square;"/>
   </g>
   <g id="line2d_130">
    <path clip-path="url(#pa5e363aaeb)" d="M 19.6 128.1 
L 32 128.1 
L 32 131.2 
L 19.6 131.2 
L 19.6 128.1 
" style="fill:none;stroke:#000000;stroke-linecap:square;"/>
   </g>
   <g id="line2d_131">
    <path clip-path="url(#pa5e363aaeb)" d="M 19.6 128.1 
L 32 128.1 
L 32 131.2 
L 19.6 131.2 
L 19.6 128.1 
" style="fill:none;stroke:#000000;stroke-linecap:square;"/>
   </g>
   <g id="line2d_132">
    <path clip-path="url(#pa5e363aaeb)" d="M 256.75 64.55 
L 266.05 64.55 
L 266.05 67.65 
L 256.75 67.65 
L 256.75 64.55 
" style="fill:none;stroke:#000000;stroke-linecap:square;"/>
   </g>
   <g id="line2d_133">
    <path clip-path="url(#pa5e363aaeb)" d="M 256.75 64.55 
L 266.05 64.55 
L 266.05 67.65 
L 256.75 67.65 
L 256.75 64.55 
" style="fill:none;stroke:#000000;stroke-linecap:square;"/>
   </g>
   <g id="line2d_134">
    <path clip-path="url(#pa5e363aaeb)" d="M 256.75 70.75 
L 266.05 70.75 
L 266.05 73.85 
L 256.75 73.85 
L 256.75 70.75 
" style="fill:none;stroke:#000000;stroke-linecap:square;"/>
   </g>
   <g id="line2d_135">
    <path clip-path="url(#pa5e363aaeb)" d="M 256.75 70.75 
L 266.05 70.75 
L 266.05 73.85 
L 256.75 73.85 
L 256.75 70.75 
" style="fill:none;stroke:#000000;stroke-linecap:square;"/>
   </g>
   <g id="line2d_136">
    <path clip-path="url(#pa5e363aaeb)" d="M 256.75 76.95 
L 269.15 76.95 
L 269.15 80.05 
L 256.75 80.05 
L 256.75 76.95 
" style="fill:none;stroke:#000000;stroke-linecap:square;"/>
   </g>
   <g id="line2d_137">
    <path clip-path="url(#pa5e363aaeb)" d="M 256.75 76.95 
L 269.15 76.95 
L 269.15 80.05 
L 256.75 80.05 
L 256.75 76.95 
" style="fill:none;stroke:#000000;stroke-linecap:square;"/>
   </g>
   <g id="line2d_138">
    <path clip-path="url(#pa5e363aaeb)" d="M 256.75 83.15 
L 269.15 83.15 
L 269.15 86.25 
L 256.75 86.25 
L 256.75 83.15 
" style="fill:none;stroke:#000000;stroke-linecap:square;"/>
   </g>
   <g id="line2d_139">
    <path clip-path="url(#pa5e363aaeb)" d="M 256.75 83.15 
L 269.15 83.15 
L 269.15 86.25 
L 256.75 86.25 
L 256.75 83.15 
" style="fill:none;stroke:#000000;stroke-linecap:square;"/>
   </g>
   <g id="line2d_140">
    <path clip-path="url(#pa5e363aaeb)" d="M 242.8 129.65 
L 255.2 129.65 
L 255.2 132.75 
L 242.8 132.75 
L 242.8 129.65 
" style="fill:none;stroke:#000000;stroke-linecap:square;"/>
   </g>
   <g id="line2d_141">
    <path clip-path="url(#pa5e363aaeb)" d="M 242.8 129.65 
L 255.2 129.65 
L 255.2 132.75 
L 242.8 132.75 
L 242.8 129.65 
" style="fill:none;stroke:#000000;stroke-linecap:square;"/>
   </g>
   <g id="line2d_142">
    <path clip-path="url(#pa5e363aaeb)" d="M 242.8 136.625 
L 255.2 136.625 
L 255.2 139.725 
L 242.8 139.725 
L 242.8 136.625 
" style="fill:none;stroke:#000000;stroke-linecap:square;"/>
   </g>
   <g id="line2d_143">
    <path clip-path="url(#pa5e363aaeb)" d="M 242.8 136.625 
L 255.2 136.625 
L 255.2 139.725 
L 242.8 139.725 
L 242.8 136.625 
" style="fill:none;stroke:#000000;stroke-linecap:square;"/>
   </g>
   <g id="line2d_144">
    <path clip-path="url(#pa5e363aaeb)" d="M 242.8 143.6 
L 255.2 143.6 
L 255.2 146.7 
L 242.8 146.7 
L 242.8 143.6 
" style="fill:none;stroke:#000000;stroke-linecap:square;"/>
   </g>
   <g id="line2d_145">
    <path clip-path="url(#pa5e363aaeb)" d="M 242.8 143.6 
L 255.2 143.6 
L 255.2 146.7 
L 242.8 146.7 
L 242.8 143.6 
" style="fill:none;stroke:#000000;stroke-linecap:square;"/>
   </g>
   <g id="line2d_146">
    <path clip-path="url(#pa5e363aaeb)" d="M 242.8 150.575 
L 255.2 150.575 
L 255.2 153.675 
L 242.8 153.675 
L 242.8 150.575 
" style="fill:none;stroke:#000000;stroke-linecap:square;"/>
   </g>
   <g id="line2d_147">
    <path clip-path="url(#pa5e363aaeb)" d="M 242.8 150.575 
L 255.2 150.575 
L 255.2 153.675 
L 242.8 153.675 
L 242.8 150.575 
" style="fill:none;stroke:#000000;stroke-linecap:square;"/>
   </g>
   <g id="line2d_148">
    <path clip-path="url(#pa5e363aaeb)" d="M 242.8 157.55 
L 255.2 157.55 
L 255.2 160.65 
L 242.8 160.65 
L 242.8 157.55 
" style="fill:none;stroke:#000000;stroke-linecap:square;"/>
   </g>
   <g id="line2d_149">
    <path clip-path="url(#pa5e363aaeb)" d="M 242.8 157.55 
L 255.2 157.55 
L 255.2 160.65 
L 242.8 160.65 
L 242.8 157.55 
" style="fill:none;stroke:#000000;stroke-linecap:square;"/>
   </g>
   <g id="line2d_150">
    <path clip-path="url(#pa5e363aaeb)" d="M 242.8 179.25 
L 255.2 179.25 
L 255.2 182.35 
L 242.8 182.35 
L 242.8 179.25 
" style="fill:none;stroke:#000000;stroke-linecap:square;"/>
   </g>
   <g id="line2d_151">
    <path clip-path="url(#pa5e363aaeb)" d="M 242.8 179.25 
L 255.2 179.25 
L 255.2 182.35 
L 242.8 182.35 
L 242.8 179.25 
" style="fill:none;stroke:#000000;stroke-linecap:square;"/>
   </g>
   <g id="line2d_152">
    <path clip-path="url(#pa5e363aaeb)" d="M 259.85 129.65 
L 272.25 129.65 
L 272.25 132.75 
L 259.85 132.75 
L 259.85 129.65 
" style="fill:none;stroke:#000000;stroke-linecap:square;"/>
   </g>
   <g id="line2d_153">
    <path clip-path="url(#pa5e363aaeb)" d="M 259.85 129.65 
L 272.25 129.65 
L 272.25 132.75 
L 259.85 132.75 
L 259.85 129.65 
" style="fill:none;stroke:#000000;stroke-linecap:square;"/>
   </g>
   <g id="line2d_154">
    <path clip-path="url(#pa5e363aaeb)" d="M 259.85 136.625 
L 272.25 136.625 
L 272.25 139.725 
L 259.85 139.725 
L 259.85 136.625 
" style="fill:none;stroke:#000000;stroke-linecap:square;"/>
   </g>
   <g id="line2d_155">
    <path clip-path="url(#pa5e363aaeb)" d="M 259.85 136.625 
L 272.25 136.625 
L 272.25 139.725 
L 259.85 139.725 
L 259.85 136.625 
" style="fill:none;stroke:#000000;stroke-linecap:square;"/>
   </g>
   <g id="line2d_156">
    <path clip-path="url(#pa5e363aaeb)" d="M 259.85 143.6 
L 272.25 143.6 
L 272.25 146.7 
L 259.85 146.7 
L 259.85 143.6 
" style="fill:none;stroke:#000000;stroke-linecap:square;"/>
   </g>
   <g id="line2d_157">
    <path clip-path="url(#pa5e363aaeb)" d="M 259.85 143.6 
L 272.25 143.6 
L 272.25 146.7 
L 259.85 146.7 
L 259.85 143.6 
" style="fill:none;stroke:#000000;stroke-linecap:square;"/>
   </g>
   <g id="line2d_158">
    <path clip-path="url(#pa5e363aaeb)" d="M 259.85 150.575 
L 272.25 150.575 
L 272.25 153.675 
L 259.85 153.675 
L 259.85 150.575 
" style="fill:none;stroke:#000000;stroke-linecap:square;"/>
   </g>
   <g id="line2d_159">
    <path clip-path="url(#pa5e363aaeb)" d="M 259.85 150.575 
L 272.25 150.575 
L 272.25 153.675 
L 259.85 153.675 
L 259.85 150.575 
" style="fill:none;stroke:#000000;stroke-linecap:square;"/>
   </g>
   <g id="line2d_160">
    <path clip-path="url(#pa5e363aaeb)" d="M 259.85 172.275 
L 272.25 172.275 
L 272.25 175.375 
L 259.85 175.375 
L 259.85 172.275 
" style="fill:none;stroke:#000000;stroke-linecap:square;"/>
   </g>
   <g id="line2d_161">
    <path clip-path="url(#pa5e363aaeb)" d="M 259.85 172.275 
L 272.25 172.275 
L 272.25 175.375 
L 259.85 175.375 
L 259.85 172.275 
" style="fill:none;stroke:#000000;stroke-linecap:square;"/>
   </g>
   <g id="line2d_162">
    <path clip-path="url(#pa5e363aaeb)" d="M 259.85 179.25 
L 272.25 179.25 
L 272.25 182.35 
L 259.85 182.35 
L 259.85 179.25 
" style="fill:none;stroke:#000000;stroke-linecap:square;"/>
   </g>
   <g id="line2d_163">
    <path clip-path="url(#pa5e363aaeb)" d="M 259.85 179.25 
L 272.25 179.25 
L 272.25 182.35 
L 259.85 182.35 
L 259.85 179.25 
" style="fill:none;stroke:#000000;stroke-linecap:square;"/>
   </g>
   <g id="line2d_164">
    <path clip-path="url(#pa5e363aaeb)" d="M 259.85 186.225 
L 272.25 186.225 
L 272.25 189.325 
L 259.85 189.325 
L 259.85 186.225 
" style="fill:none;stroke:#000000;stroke-linecap:square;"/>
   </g>
   <g id="line2d_165">
    <path clip-path="url(#pa5e363aaeb)" d="M 259.85 186.225 
L 272.25 186.225 
L 272.25 189.325 
L 259.85 189.325 
L 259.85 186.225 
" style="fill:none;stroke:#000000;stroke-linecap:square;"/>
   </g>
   <g id="line2d_166">
    <path clip-path="url(#pa5e363aaeb)" d="M 259.85 194.75 
L 272.25 194.75 
L 272.25 197.85 
L 259.85 197.85 
L 259.85 194.75 
" style="fill:none;stroke:#000000;stroke-linecap:square;"/>
   </g>
   <g id="line2d_167">
    <path clip-path="url(#pa5e363aaeb)" d="M 259.85 194.75 
L 272.25 194.75 
L 272.25 197.85 
L 259.85 197.85 
L 259.85 194.75 
" style="fill:none;stroke:#000000;stroke-linecap:square;"/>
   </g>
   <g id="line2d_168">
    <path clip-path="url(#pa5e363aaeb)" d="M 236.6 231.95 
L 256.75 231.95 
L 256.75 235.05 
L 236.6 235.05 
L 236.6 231.95 
" style="fill:none;stroke:#000000;stroke-linecap:square;"/>
   </g>
   <g id="line2d_169">
    <path clip-path="url(#pa5e363aaeb)" d="M 236.6 231.95 
L 256.75 231.95 
L 256.75 235.05 
L 236.6 235.05 
L 236.6 231.95 
" style="fill:none;stroke:#000000;stroke-linecap:square;"/>
   </g>
   <g id="line2d_170">
    <path clip-path="url(#pa5e363aaeb)" d="M 244.35 239.7 
L 256.75 239.7 
L 256.75 242.8 
L 244.35 242.8 
L 244.35 239.7 
" style="fill:none;stroke:#000000;stroke-linecap:square;"/>
   </g>
   <g id="line2d_171">
    <path clip-path="url(#pa5e363aaeb)" d="M 244.35 239.7 
L 256.75 239.7 
L 256.75 242.8 
L 244.35 242.8 
L 244.35 239.7 
" style="fill:none;stroke:#000000;stroke-linecap:square;"/>
   </g>
   <g id="line2d_172">
    <path clip-path="url(#pa5e363aaeb)" d="M 242.8 261.4 
L 255.2 261.4 
L 255.2 264.5 
L 242.8 264.5 
L 242.8 261.4 
" style="fill:none;stroke:#000000;stroke-linecap:square;"/>
   </g>
   <g id="line2d_173">
    <path clip-path="url(#pa5e363aaeb)" d="M 242.8 261.4 
L 255.2 261.4 
L 255.2 264.5 
L 242.8 264.5 
L 242.8 261.4 
" style="fill:none;stroke:#000000;stroke-linecap:square;"/>
   </g>
   <g id="line2d_174">
    <path clip-path="url(#pa5e363aaeb)" d="M 262.95 210.25 
L 272.25 210.25 
L 272.25 213.35 
L 262.95 213.35 
L 262.95 210.25 
" style="fill:none;stroke:#000000;stroke-linecap:square;"/>
   </g>
   <g id="line2d_175">
    <path clip-path="url(#pa5e363aaeb)" d="M 262.95 210.25 
L 272.25 210.25 
L 272.25 213.35 
L 262.95 213.35 
L 262.95 210.25 
" style="fill:none;stroke:#000000;stroke-linecap:square;"/>
   </g>
   <g id="line2d_176">
    <path clip-path="url(#pa5e363aaeb)" d="M 262.95 215.675 
L 272.25 215.675 
L 272.25 218.775 
L 262.95 218.775 
L 262.95 215.675 
" style="fill:none;stroke:#000000;stroke-linecap:square;"/>
   </g>
   <g id="line2d_177">
    <path clip-path="url(#pa5e363aaeb)" d="M 262.95 215.675 
L 272.25 215.675 
L 272.25 218.775 
L 262.95 218.775 
L 262.95 215.675 
" style="fill:none;stroke:#000000;stroke-linecap:square;"/>
   </g>
   <g id="line2d_178">
    <path clip-path="url(#pa5e363aaeb)" d="M 262.95 221.1 
L 272.25 221.1 
L 272.25 224.2 
L 262.95 224.2 
L 262.95 221.1 
" style="fill:none;stroke:#000000;stroke-linecap:square;"/>
   </g>
   <g id="line2d_179">
    <path clip-path="url(#pa5e363aaeb)" d="M 262.95 221.1 
L 272.25 221.1 
L 272.25 224.2 
L 262.95 224.2 
L 262.95 221.1 
" style="fill:none;stroke:#000000;stroke-linecap:square;"/>
   </g>
   <g id="line2d_180">
    <path clip-path="url(#pa5e363aaeb)" d="M 262.95 226.525 
L 272.25 226.525 
L 272.25 229.625 
L 262.95 229.625 
L 262.95 226.525 
" style="fill:none;stroke:#000000;stroke-linecap:square;"/>
   </g>
   <g id="line2d_181">
    <path clip-path="url(#pa5e363aaeb)" d="M 262.95 226.525 
L 272.25 226.525 
L 272.25 229.625 
L 262.95 229.625 
L 262.95 226.525 
" style="fill:none;stroke:#000000;stroke-linecap:square;"/>
   </g>
   <g id="line2d_182">
    <path clip-path="url(#pa5e363aaeb)" d="M 262.95 231.95 
L 272.25 231.95 
L 272.25 235.05 
L 262.95 235.05 
L 262.95 231.95 
" style="fill:none;stroke:#000000;stroke-linecap:square;"/>
   </g>
   <g id="line2d_183">
    <path clip-path="url(#pa5e363aaeb)" d="M 262.95 231.95 
L 272.25 231.95 
L 272.25 235.05 
L 262.95 235.05 
L 262.95 231.95 
" style="fill:none;stroke:#000000;stroke-linecap:square;"/>
   </g>
   <g id="line2d_184">
    <path clip-path="url(#pa5e363aaeb)" d="M 19.6 109.5 
L 22.7 112.6 
L 25.8 109.5 
L 22.7 106.4 
L 19.6 109.5 
" style="fill:none;stroke:#000000;stroke-linecap:square;"/>
   </g>
   <g id="line2d_185">
    <path clip-path="url(#pa5e363aaeb)" d="M 31.3645 109.5 
L 34.4645 112.6 
L 37.5645 109.5 
L 34.4645 106.4 
L 31.3645 109.5 
" style="fill:none;stroke:#000000;stroke-linecap:square;"/>
   </g>
   <g id="line2d_186">
    <path clip-path="url(#pa5e363aaeb)" d="M 43.129 109.5 
L 46.229 112.6 
L 49.329 109.5 
L 46.229 106.4 
L 43.129 109.5 
" style="fill:none;stroke:#000000;stroke-linecap:square;"/>
   </g>
   <g id="line2d_187">
    <path clip-path="url(#pa5e363aaeb)" d="M 54.8935 109.5 
L 57.9935 112.6 
L 61.0935 109.5 
L 57.9935 106.4 
L 54.8935 109.5 
" style="fill:none;stroke:#000000;stroke-linecap:square;"/>
   </g>
   <g id="line2d_188">
    <path clip-path="url(#pa5e363aaeb)" d="M 66.658 109.5 
L 69.758 112.6 
L 72.858 109.5 
L 69.758 106.4 
L 66.658 109.5 
" style="fill:none;stroke:#000000;stroke-linecap:square;"/>
   </g>
   <g id="line2d_189">
    <path clip-path="url(#pa5e363aaeb)" d="M 78.4225 109.5 
L 81.5225 112.6 
L 84.6225 109.5 
L 81.5225 106.4 
L 78.4225 109.5 
" style="fill:none;stroke:#000000;stroke-linecap:square;"/>
   </g>
   <g id="line2d_190">
    <path clip-path="url(#pa5e363aaeb)" d="M 242.8 188.55 
L 245.9 191.65 
L 249 188.55 
L 245.9 185.45 
L 242.8 188.55 
" style="fill:none;stroke:#000000;stroke-linecap:square;"/>
   </g>
   <g id="line2d_191">
    <path clip-path="url(#pa5e363aaeb)" d="M 249 191.65 
L 252.1 194.75 
L 255.2 191.65 
L 252.1 188.55 
L 249 191.65 
" style="fill:none;stroke:#000000;stroke-linecap:square;"/>
   </g>
   <g id="line2d_192">
    <path clip-path="url(#pa5e363aaeb)" d="M 221.1 209.475 
L 224.2 212.575 
L 227.3 209.475 
L 224.2 206.375 
L 221.1 209.475 
" style="fill:none;stroke:#000000;stroke-linecap:square;"/>
   </g>
   <g id="line2d_193">
    <path clip-path="url(#pa5e363aaeb)" d="M 221.1 216.45 
L 224.2 219.55 
L 227.3 216.45 
L 224.2 213.35 
L 221.1 216.45 
" style="fill:none;stroke:#000000;stroke-linecap:square;"/>
   </g>
   <g id="line2d_194">
    <path clip-path="url(#pa5e363aaeb)" d="M 221.1 223.425 
L 224.2 226.525 
L 227.3 223.425 
L 224.2 220.325 
L 221.1 223.425 
" style="fill:none;stroke:#000000;stroke-linecap:square;"/>
   </g>
   <g id="line2d_195">
    <path clip-path="url(#pa5e363aaeb)" d="M 221.1 230.4 
L 224.2 233.5 
L 227.3 230.4 
L 224.2 227.3 
L 221.1 230.4 
" style="fill:none;stroke:#000000;stroke-linecap:square;"/>
   </g>
   <g id="text_1">
    <!-- Rampen -->
    <defs>
     <path d="M 56.203125 29.59375 
L 56.203125 25.203125 
L 14.890625 25.203125 
Q 15.484375 15.921875 20.484375 11.0625 
Q 25.484375 6.203125 34.421875 6.203125 
Q 39.59375 6.203125 44.453125 7.46875 
Q 49.3125 8.734375 54.109375 11.28125 
L 54.109375 2.78125 
Q 49.265625 0.734375 44.1875 -0.34375 
Q 39.109375 -1.421875 33.890625 -1.421875 
Q 20.796875 -1.421875 13.15625 6.1875 
Q 5.515625 13.8125 5.515625 26.8125 
Q 5.515625 40.234375 12.765625 48.109375 
Q 20.015625 56 32.328125 56 
Q 43.359375 56 49.78125 48.890625 
Q 56.203125 41.796875 56.203125 29.59375 
M 47.21875 32.234375 
Q 47.125 39.59375 43.09375 43.984375 
Q 39.0625 48.390625 32.421875 48.390625 
Q 24.90625 48.390625 20.390625 44.140625 
Q 15.875 39.890625 15.1875 32.171875 
z
" id="BitstreamVeraSans-Roman-65"/>
     <path d="M 52 44.1875 
Q 55.375 50.25 60.0625 53.125 
Q 64.75 56 71.09375 56 
Q 79.640625 56 84.28125 50.015625 
Q 88.921875 44.046875 88.921875 33.015625 
L 88.921875 0 
L 79.890625 0 
L 79.890625 32.71875 
Q 79.890625 40.578125 77.09375 44.375 
Q 74.3125 48.1875 68.609375 48.1875 
Q 61.625 48.1875 57.5625 43.546875 
Q 53.515625 38.921875 53.515625 30.90625 
L 53.515625 0 
L 44.484375 0 
L 44.484375 32.71875 
Q 44.484375 40.625 41.703125 44.40625 
Q 38.921875 48.1875 33.109375 48.1875 
Q 26.21875 48.1875 22.15625 43.53125 
Q 18.109375 38.875 18.109375 30.90625 
L 18.109375 0 
L 9.078125 0 
L 9.078125 54.6875 
L 18.109375 54.6875 
L 18.109375 46.1875 
Q 21.1875 51.21875 25.484375 53.609375 
Q 29.78125 56 35.6875 56 
Q 41.65625 56 45.828125 52.96875 
Q 50 49.953125 52 44.1875 
" id="BitstreamVeraSans-Roman-6d"/>
     <path d="M 44.390625 34.1875 
Q 47.5625 33.109375 50.5625 29.59375 
Q 53.5625 26.078125 56.59375 19.921875 
L 66.609375 0 
L 56 0 
L 46.6875 18.703125 
Q 43.0625 26.03125 39.671875 28.421875 
Q 36.28125 30.8125 30.421875 30.8125 
L 19.671875 30.8125 
L 19.671875 0 
L 9.8125 0 
L 9.8125 72.90625 
L 32.078125 72.90625 
Q 44.578125 72.90625 50.734375 67.671875 
Q 56.890625 62.453125 56.890625 51.90625 
Q 56.890625 45.015625 53.6875 40.46875 
Q 50.484375 35.9375 44.390625 34.1875 
M 19.671875 64.796875 
L 19.671875 38.921875 
L 32.078125 38.921875 
Q 39.203125 38.921875 42.84375 42.21875 
Q 46.484375 45.515625 46.484375 51.90625 
Q 46.484375 58.296875 42.84375 61.546875 
Q 39.203125 64.796875 32.078125 64.796875 
z
" id="BitstreamVeraSans-Roman-52"/>
     <path d="M 34.28125 27.484375 
Q 23.390625 27.484375 19.1875 25 
Q 14.984375 22.515625 14.984375 16.5 
Q 14.984375 11.71875 18.140625 8.90625 
Q 21.296875 6.109375 26.703125 6.109375 
Q 34.1875 6.109375 38.703125 11.40625 
Q 43.21875 16.703125 43.21875 25.484375 
L 43.21875 27.484375 
z
M 52.203125 31.203125 
L 52.203125 0 
L 43.21875 0 
L 43.21875 8.296875 
Q 40.140625 3.328125 35.546875 0.953125 
Q 30.953125 -1.421875 24.3125 -1.421875 
Q 15.921875 -1.421875 10.953125 3.296875 
Q 6 8.015625 6 15.921875 
Q 6 25.140625 12.171875 29.828125 
Q 18.359375 34.515625 30.609375 34.515625 
L 43.21875 34.515625 
L 43.21875 35.40625 
Q 43.21875 41.609375 39.140625 45 
Q 35.0625 48.390625 27.6875 48.390625 
Q 23 48.390625 18.546875 47.265625 
Q 14.109375 46.140625 10.015625 43.890625 
L 10.015625 52.203125 
Q 14.9375 54.109375 19.578125 55.046875 
Q 24.21875 56 28.609375 56 
Q 40.484375 56 46.34375 49.84375 
Q 52.203125 43.703125 52.203125 31.203125 
" id="BitstreamVeraSans-Roman-61"/>
     <path d="M 18.109375 8.203125 
L 18.109375 -20.796875 
L 9.078125 -20.796875 
L 9.078125 54.6875 
L 18.109375 54.6875 
L 18.109375 46.390625 
Q 20.953125 51.265625 25.265625 53.625 
Q 29.59375 56 35.59375 56 
Q 45.5625 56 51.78125 48.09375 
Q 58.015625 40.1875 58.015625 27.296875 
Q 58.015625 14.40625 51.78125 6.484375 
Q 45.5625 -1.421875 35.59375 -1.421875 
Q 29.59375 -1.421875 25.265625 0.953125 
Q 20.953125 3.328125 18.109375 8.203125 
M 48.6875 27.296875 
Q 48.6875 37.203125 44.609375 42.84375 
Q 40.53125 48.484375 33.40625 48.484375 
Q 26.265625 48.484375 22.1875 42.84375 
Q 18.109375 37.203125 18.109375 27.296875 
Q 18.109375 17.390625 22.1875 11.75 
Q 26.265625 6.109375 33.40625 6.109375 
Q 40.53125 6.109375 44.609375 11.75 
Q 48.6875 17.390625 48.6875 27.296875 
" id="BitstreamVeraSans-Roman-70"/>
     <path d="M 54.890625 33.015625 
L 54.890625 0 
L 45.90625 0 
L 45.90625 32.71875 
Q 45.90625 40.484375 42.875 44.328125 
Q 39.84375 48.1875 33.796875 48.1875 
Q 26.515625 48.1875 22.3125 43.546875 
Q 18.109375 38.921875 18.109375 30.90625 
L 18.109375 0 
L 9.078125 0 
L 9.078125 54.6875 
L 18.109375 54.6875 
L 18.109375 46.1875 
Q 21.34375 51.125 25.703125 53.5625 
Q 30.078125 56 35.796875 56 
Q 45.21875 56 50.046875 50.171875 
Q 54.890625 44.34375 54.890625 33.015625 
" id="BitstreamVeraSans-Roman-6e"/>
    </defs>
    <g transform="translate(159.1 90.9)scale(0.1 -0.1)">
     <use xlink:href="#BitstreamVeraSans-Roman-52"/>
     <use x="69.451171875" xlink:href="#BitstreamVeraSans-Roman-61"/>
     <use x="130.73046875" xlink:href="#BitstreamVeraSans-Roman-6d"/>
     <use x="228.142578125" xlink:href="#BitstreamVeraSans-Roman-70"/>
     <use x="291.619140625" xlink:href="#BitstreamVeraSans-Roman-65"/>
     <use x="353.142578125" xlink:href="#BitstreamVeraSans-Roman-6e"/>
    </g>
   </g>
   <g id="text_2">
    <!-- Hvd. indgang -->
    <defs>
     <path d="M 45.40625 27.984375 
Q 45.40625 37.75 41.375 43.109375 
Q 37.359375 48.484375 30.078125 48.484375 
Q 22.859375 48.484375 18.828125 43.109375 
Q 14.796875 37.75 14.796875 27.984375 
Q 14.796875 18.265625 18.828125 12.890625 
Q 22.859375 7.515625 30.078125 7.515625 
Q 37.359375 7.515625 41.375 12.890625 
Q 45.40625 18.265625 45.40625 27.984375 
M 54.390625 6.78125 
Q 54.390625 -7.171875 48.1875 -13.984375 
Q 42 -20.796875 29.203125 -20.796875 
Q 24.46875 -20.796875 20.265625 -20.09375 
Q 16.0625 -19.390625 12.109375 -17.921875 
L 12.109375 -9.1875 
Q 16.0625 -11.328125 19.921875 -12.34375 
Q 23.78125 -13.375 27.78125 -13.375 
Q 36.625 -13.375 41.015625 -8.765625 
Q 45.40625 -4.15625 45.40625 5.171875 
L 45.40625 9.625 
Q 42.625 4.78125 38.28125 2.390625 
Q 33.9375 0 27.875 0 
Q 17.828125 0 11.671875 7.65625 
Q 5.515625 15.328125 5.515625 27.984375 
Q 5.515625 40.671875 11.671875 48.328125 
Q 17.828125 56 27.875 56 
Q 33.9375 56 38.28125 53.609375 
Q 42.625 51.21875 45.40625 46.390625 
L 45.40625 54.6875 
L 54.390625 54.6875 
z
" id="BitstreamVeraSans-Roman-67"/>
     <path d="M 9.8125 72.90625 
L 19.671875 72.90625 
L 19.671875 43.015625 
L 55.515625 43.015625 
L 55.515625 72.90625 
L 65.375 72.90625 
L 65.375 0 
L 55.515625 0 
L 55.515625 34.71875 
L 19.671875 34.71875 
L 19.671875 0 
L 9.8125 0 
z
" id="BitstreamVeraSans-Roman-48"/>
     <path id="BitstreamVeraSans-Roman-20"/>
     <path d="M 45.40625 46.390625 
L 45.40625 75.984375 
L 54.390625 75.984375 
L 54.390625 0 
L 45.40625 0 
L 45.40625 8.203125 
Q 42.578125 3.328125 38.25 0.953125 
Q 33.9375 -1.421875 27.875 -1.421875 
Q 17.96875 -1.421875 11.734375 6.484375 
Q 5.515625 14.40625 5.515625 27.296875 
Q 5.515625 40.1875 11.734375 48.09375 
Q 17.96875 56 27.875 56 
Q 33.9375 56 38.25 53.625 
Q 42.578125 51.265625 45.40625 46.390625 
M 14.796875 27.296875 
Q 14.796875 17.390625 18.875 11.75 
Q 22.953125 6.109375 30.078125 6.109375 
Q 37.203125 6.109375 41.296875 11.75 
Q 45.40625 17.390625 45.40625 27.296875 
Q 45.40625 37.203125 41.296875 42.84375 
Q 37.203125 48.484375 30.078125 48.484375 
Q 22.953125 48.484375 18.875 42.84375 
Q 14.796875 37.203125 14.796875 27.296875 
" id="BitstreamVeraSans-Roman-64"/>
     <path d="M 2.984375 54.6875 
L 12.5 54.6875 
L 29.59375 8.796875 
L 46.6875 54.6875 
L 56.203125 54.6875 
L 35.6875 0 
L 23.484375 0 
z
" id="BitstreamVeraSans-Roman-76"/>
     <path d="M 9.421875 54.6875 
L 18.40625 54.6875 
L 18.40625 0 
L 9.421875 0 
z
M 9.421875 75.984375 
L 18.40625 75.984375 
L 18.40625 64.59375 
L 9.421875 64.59375 
z
" id="BitstreamVeraSans-Roman-69"/>
     <path d="M 10.6875 12.40625 
L 21 12.40625 
L 21 0 
L 10.6875 0 
z
" id="BitstreamVeraSans-Roman-2e"/>
    </defs>
    <g transform="translate(11.075 180.8)scale(0.1 -0.1)">
     <use xlink:href="#BitstreamVeraSans-Roman-48"/>
     <use x="75.1953125" xlink:href="#BitstreamVeraSans-Roman-76"/>
     <use x="134.375" xlink:href="#BitstreamVeraSans-Roman-64"/>
     <use x="197.8515625" xlink:href="#BitstreamVeraSans-Roman-2e"/>
     <use x="229.638671875" xlink:href="#BitstreamVeraSans-Roman-20"/>
     <use x="261.42578125" xlink:href="#BitstreamVeraSans-Roman-69"/>
     <use x="289.208984375" xlink:href="#BitstreamVeraSans-Roman-6e"/>
     <use x="352.587890625" xlink:href="#BitstreamVeraSans-Roman-64"/>
     <use x="416.064453125" xlink:href="#BitstreamVeraSans-Roman-67"/>
     <use x="479.541015625" xlink:href="#BitstreamVeraSans-Roman-61"/>
     <use x="540.8203125" xlink:href="#BitstreamVeraSans-Roman-6e"/>
     <use x="604.19921875" xlink:href="#BitstreamVeraSans-Roman-67"/>
    </g>
   </g>
   <g id="text_3">
    <g id="patch_2">
     <path d="M 6.445 284.543594 
L 73.96375 284.543594 
L 73.96375 262.082031 
L 6.445 262.082031 
z
" style="fill:#ffffff;opacity:0.8;stroke:#000000;stroke-linejoin:miter;"/>
    </g>
    <!-- Niveau 1 -->
    <defs>
     <path d="M 8.5 21.578125 
L 8.5 54.6875 
L 17.484375 54.6875 
L 17.484375 21.921875 
Q 17.484375 14.15625 20.5 10.265625 
Q 23.53125 6.390625 29.59375 6.390625 
Q 36.859375 6.390625 41.078125 11.03125 
Q 45.3125 15.671875 45.3125 23.6875 
L 45.3125 54.6875 
L 54.296875 54.6875 
L 54.296875 0 
L 45.3125 0 
L 45.3125 8.40625 
Q 42.046875 3.421875 37.71875 1 
Q 33.40625 -1.421875 27.6875 -1.421875 
Q 18.265625 -1.421875 13.375 4.4375 
Q 8.5 10.296875 8.5 21.578125 
" id="BitstreamVeraSans-Roman-75"/>
     <path d="M 9.8125 72.90625 
L 23.09375 72.90625 
L 55.421875 11.921875 
L 55.421875 72.90625 
L 64.984375 72.90625 
L 64.984375 0 
L 51.703125 0 
L 19.390625 60.984375 
L 19.390625 0 
L 9.8125 0 
z
" id="BitstreamVeraSans-Roman-4e"/>
     <path d="M 12.40625 8.296875 
L 28.515625 8.296875 
L 28.515625 63.921875 
L 10.984375 60.40625 
L 10.984375 69.390625 
L 28.421875 72.90625 
L 38.28125 72.90625 
L 38.28125 8.296875 
L 54.390625 8.296875 
L 54.390625 0 
L 12.40625 0 
z
" id="BitstreamVeraSans-Roman-31"/>
    </defs>
    <g style="fill:#235587;" transform="translate(11.385 276.9)scale(0.13 -0.13)">
     <use xlink:href="#BitstreamVeraSans-Roman-4e"/>
     <use x="74.8046875" xlink:href="#BitstreamVeraSans-Roman-69"/>
     <use x="102.587890625" xlink:href="#BitstreamVeraSans-Roman-76"/>
     <use x="161.767578125" xlink:href="#BitstreamVeraSans-Roman-65"/>
     <use x="223.291015625" xlink:href="#BitstreamVeraSans-Roman-61"/>
     <use x="284.5703125" xlink:href="#BitstreamVeraSans-Roman-75"/>
     <use x="347.94921875" xlink:href="#BitstreamVeraSans-Roman-20"/>
     <use x="379.736328125" xlink:href="#BitstreamVeraSans-Roman-31"/>
    </g>
   </g>
  </g>
 </g>
 <defs>
  <clipPath id="pa5e363aaeb">
   <rect height="279.0" width="279.0" x="7.2" y="7.2"/>
  </clipPath>
 </defs>
</svg>
